<!DOCTYPE svg PUBLIC "-//W3C//DTD SVG 1.1//EN" "http://www.w3.org/Graphics/SVG/1.1/DTD/svg11.dtd">
<!-- Uploaded to: SVG Repo, www.svgrepo.com, Transformed by: SVG Repo Mixer Tools -->
<svg fill="#ffffff" height="800px" width="800px" version="1.1" id="Layer_1" xmlns="http://www.w3.org/2000/svg" xmlns:xlink="http://www.w3.org/1999/xlink" viewBox="0 0 188.212 188.212" xml:space="preserve" stroke="#ffffff">
<g id="SVGRepo_bgCarrier" stroke-width="0"/>
<g id="SVGRepo_tracerCarrier" stroke-linecap="round" stroke-linejoin="round"/>
<g id="SVGRepo_iconCarrier"> <g> <g> <path d="M149.376,121.242v-0.005c0.258,0,0.512-0.03,0.759-0.085c19.619-1.315,34.899-17.612,34.899-37.356 c0-20.091-15.907-36.536-35.787-37.404C147.367,20.505,124.952,0,97.672,0C76.03,0,56.957,12.797,49.349,32.12 c-0.529-0.019-1.062-0.028-1.598-0.028c-24.578,0-44.573,19.995-44.573,44.573c0,23.75,18.686,43.164,42.121,44.449 c-4.324,11.636-9.77,27.301-9.831,27.481c-0.379,1.09-0.209,2.296,0.463,3.237c0.668,0.94,1.752,1.499,2.904,1.499H63.89 l0.853,31.41c0.045,1.675,1.254,3.092,2.901,3.406c0.223,0.042,0.446,0.063,0.665,0.063c1.407,0,2.713-0.836,3.28-2.169 l22.231-52.199c0.47-1.1,0.355-2.365-0.306-3.362c-0.658-0.999-1.776-1.6-2.974-1.6H65.218v-7.64h47.786 c-4.316,11.623-9.724,27.178-9.785,27.357c-0.379,1.09-0.209,2.296,0.463,3.237c0.668,0.94,1.752,1.499,2.904,1.499h25.055 l0.853,31.41c0.045,1.675,1.254,3.092,2.901,3.406c0.223,0.042,0.446,0.063,0.665,0.063c1.407,0,2.713-0.836,3.28-2.169 l22.231-52.199c0.47-1.1,0.355-2.365-0.306-3.362c-0.658-0.999-1.776-1.6-2.974-1.6h-25.323v-7.64H149.376z M85.146,136.009 l-13.717,32.204l-0.501-18.546c-0.052-1.931-1.633-3.468-3.566-3.468H43.861c2.163-6.149,6.007-16.998,9.009-24.961h5.216v11.206 c0,1.968,1.595,3.565,3.565,3.565H85.146z M152.897,136.009l-13.717,32.204l-0.501-18.546c-0.052-1.931-1.633-3.468-3.566-3.468 h-23.502c2.163-6.149,6.007-16.998,9.009-24.961h5.216v11.206c0,1.968,1.595,3.565,3.566,3.565H152.897z M118.038,114.106 c-0.001,0-0.003,0-0.003,0H50.291c-0.001,0-0.003,0-0.005,0h-0.221c-0.219-0.033-0.446-0.038-0.679-0.035 c-0.543,0.025-1.087,0.035-1.637,0.035c-20.645,0-37.439-16.797-37.439-37.441c0-20.645,16.795-37.441,37.441-37.441 c1.243,0,2.476,0.061,3.691,0.179c1.63,0.164,3.211-0.844,3.733-2.43C61.07,19.124,78.15,7.132,97.672,7.132 c24.578,0,44.573,19.196,44.573,42.835c0,0.977,0.4,1.91,1.107,2.584c0.71,0.672,1.661,1.041,2.636,0.977 c0.533-0.026,1.065-0.04,1.605-0.04c16.711,0,30.309,13.596,30.309,30.309c0,16.143-12.616,29.439-28.725,30.269 c-0.125,0.005-0.251,0.019-0.376,0.04H118.038z"/> </g> </g> </g>
</svg>